<svg width="20" height="20" viewBox="0 0 20 20" fill="none" xmlns="http://www.w3.org/2000/svg">
<path d="M11.4417 17.5C11.2951 17.7526 11.0849 17.9622 10.8318 18.1079C10.5788 18.2537 10.292 18.3304 9.99999 18.3304C9.708 18.3304 9.42114 18.2537 9.16813 18.1079C8.91512 17.9622 8.70483 17.7526 8.55832 17.5" stroke="black" stroke-width="2" stroke-linecap="round" stroke-linejoin="round"/>
<path d="M17.5 4.16667H12.5" stroke="black" stroke-width="2" stroke-linecap="round" stroke-linejoin="round"/>
<path d="M15.0175 7.5C15.2417 12.6608 17.5 14.1667 17.5 14.1667H2.5C2.5 14.1667 5 12.5 5 6.66667C5.00001 5.93954 5.15861 5.22117 5.46475 4.56163C5.77088 3.90209 6.21718 3.31725 6.77254 2.8479C7.32789 2.37854 7.97894 2.03596 8.68028 1.84404C9.38162 1.65212 10.1164 1.61548 10.8333 1.73667" stroke="black" stroke-width="2" stroke-linecap="round" stroke-linejoin="round"/>
</svg>
