<svg width="49" height="39" viewBox="0 0 49 39" fill="none" xmlns="http://www.w3.org/2000/svg">
<path d="M48.2803 27.7951L41.3667 20.9244C40.448 20.0104 39.2 19.5 37.8984 19.5H31.827C30.4719 19.5 29.377 20.5893 29.377 21.9375V27.9703C29.377 29.2652 29.89 30.4992 30.8088 31.4133L37.7223 38.284C38.6794 39.2361 40.2336 39.2361 41.1906 38.284L48.2727 31.2381C49.2373 30.2859 49.2373 28.7473 48.2803 27.7951ZM34.2847 26.1955C33.2664 26.1955 32.4472 25.3805 32.4472 24.3674C32.4472 23.3543 33.2664 22.5393 34.2847 22.5393C35.303 22.5393 36.1222 23.3543 36.1222 24.3674C36.1222 25.3729 35.303 26.1955 34.2847 26.1955ZM17.15 19.4924C22.563 19.4924 26.95 15.1277 26.95 9.74238C26.95 4.36465 22.563 0 17.15 0C11.737 0 7.35 4.36465 7.35 9.75C7.35 15.1277 11.737 19.4924 17.15 19.4924ZM26.9347 27.9627V22.3945C26.0006 22.1203 25.0283 21.9223 24.01 21.9223H22.7314C21.0317 22.6992 19.1406 23.141 17.15 23.141C15.1594 23.141 13.2759 22.6992 11.5686 21.9223H10.29C4.60906 21.9299 0 26.5154 0 32.1674V35.3361C0 37.3547 1.64609 38.9924 3.675 38.9924H30.625C31.8117 38.9924 32.853 38.4211 33.5267 37.5527L29.0861 33.1348C27.7003 31.7561 26.9347 29.9203 26.9347 27.9627Z" fill="black"/>
</svg>
