<svg width="70" height="70" viewBox="0 0 70 70" fill="none" xmlns="http://www.w3.org/2000/svg">
<circle cx="35" cy="35" r="34.5" fill="#F5F5F5" stroke="black"/>
<path d="M20.3381 23.8422C25.5728 29.7311 24.8423 48.0297 24.8423 55.3712" stroke="black" stroke-width="3" stroke-linecap="round"/>
<path d="M23.3409 22.3408C33.454 22.3408 36.6866 18.2052 36.6866 31.7661C36.6866 34.1516 27.6283 34.3519 30.0138 34.3519C33.0443 34.3519 36.0749 34.3519 39.1055 34.3519C41.9366 34.3519 42.8705 43.9776 41.0239 46.0293C37.7921 49.6202 30.8917 50.8671 26.3437 50.8671" stroke="black" stroke-width="3" stroke-linecap="round"/>
<path d="M53.3686 34.3519C52.9024 30.6221 48.8645 35.8261 48.8645 38.0219C48.8645 42.119 49.221 44.8616 54.2027 44.8616C61.0098 44.8616 60.8755 39.9072 60.8755 34.6855C60.8755 26.9746 60.8755 30.398 60.8755 35.5196C60.8755 39.3764 63.1014 63.443 60.7921 64.2127C57.7747 65.2186 47.6009 65.657 47.3631 61.3768C47.0272 55.3311 60.8436 49.765 65.3797 46.3629" stroke="black" stroke-width="3" stroke-linecap="round"/>
<path d="M60.8755 29.8477C59.0506 29.6449 49.8461 26.0367 48.9479 29.1804C48.1619 31.9313 47.9633 39.1561 50.3659 40.3574" stroke="black" stroke-width="3" stroke-linecap="round"/>
</svg>
